<svg xmlns="http://www.w3.org/2000/svg" viewBox="0 0 12.17 11"><defs><style>.cls-1{fill:#e44522;}</style></defs><title>icon_heart_</title><g id="Layer_2" data-name="Layer 2"><g id="Layer_1-2" data-name="Layer 1"><path class="cls-1" d="M6.08,11A.59.59,0,0,1,5.85,11a.66.66,0,0,1-.2-.14l-4.72-5A3.5,3.5,0,0,1,0,3.38,3.5,3.5,0,0,1,.93,1,3.08,3.08,0,0,1,3.18,0,3.12,3.12,0,0,1,5.43,1l.65.7L6.74,1a3.05,3.05,0,0,1,4.5,0,3.55,3.55,0,0,1,0,4.79l-4.73,5a.52.52,0,0,1-.19.14A.69.69,0,0,1,6.08,11Z"/></g></g></svg>