<svg xmlns="http://www.w3.org/2000/svg" viewBox="0 0 136.64 128.6"><defs><style>.cls-1{fill:#fff;}</style></defs><title>home</title><g id="Layer_2" data-name="Layer 2"><g id="Layer_1-2" data-name="Layer 1"><path class="cls-1" d="M134.2,56.55l-61-54.69a7.31,7.31,0,0,0-9.75,0l-61,54.68A7.3,7.3,0,0,0,7.32,69.29H19.61v48.85c0,5.78,4.12,10.46,9.21,10.46H44.57c5.09,0,9.22-4.68,9.22-10.46V96.7c0-5.77,4.13-10.45,9.22-10.45H73.63c5.09,0,9.22,4.68,9.22,10.45v21.44c0,5.78,4.13,10.46,9.22,10.46h15.75c5.09,0,9.22-4.68,9.22-10.46V69.29h12.28A7.3,7.3,0,0,0,134.2,56.55Z"/></g></g></svg>