<svg xmlns="http://www.w3.org/2000/svg" viewBox="0 0 676.41 381.39"><defs><style>.cls-1,.cls-23{fill:#a08e65;}.cls-1,.cls-12,.cls-13,.cls-14,.cls-15,.cls-16,.cls-17,.cls-18,.cls-19,.cls-22,.cls-3,.cls-4,.cls-5,.cls-7{stroke:#231f20;}.cls-1,.cls-12,.cls-13,.cls-14,.cls-15,.cls-16,.cls-17,.cls-18,.cls-19,.cls-22,.cls-3,.cls-4,.cls-5,.cls-7,.cls-9{stroke-linecap:round;stroke-linejoin:round;}.cls-1,.cls-13,.cls-14,.cls-15,.cls-16,.cls-17,.cls-18,.cls-19,.cls-20,.cls-22,.cls-7{stroke-width:2px;}.cls-2{fill:#ecebf5;}.cls-3,.cls-9{fill:none;}.cls-4{fill:#e28528;}.cls-5{fill:#fff;}.cls-12,.cls-6{fill:#f3e8db;}.cls-10,.cls-11,.cls-20,.cls-6,.cls-9{stroke:#000;}.cls-10,.cls-11,.cls-20,.cls-6{stroke-miterlimit:10;}.cls-7{fill:#aa8f71;}.cls-8{fill:#231f20;}.cls-10{fill:#ddddec;}.cls-11{fill:#ee343b;}.cls-13{fill:#e5e1dc;}.cls-14{fill:#d87360;}.cls-15{fill:#e1bd71;}.cls-16{fill:#f3aece;}.cls-17{fill:#ffebd8;}.cls-18{fill:#5f7751;}.cls-19{fill:#cc8a41;}.cls-20{fill:#dde;}.cls-21{fill:#bc7936;}.cls-22{fill:#5b62ad;}</style></defs><title>back</title><g id="Layer_2" data-name="Layer 2"><g id="Layer_1-2" data-name="Layer 1"><polygon class="cls-1" points="650.26 117.42 645.52 380.39 12.02 380.39 12.02 117.23 650.26 117.42"/><path class="cls-2" d="M503.4,168.76h0c8.92-16.07,8.85-40.74,8.85-40.74-8.71-80.71-75-88.49-75-88.49L369,59.86l-.39.23C317.8,91,323.24,137.56,330,160.65h0s-60.24,27.13-47.85,64.58,80.92,26.9,80.92,26.9L409,242.64s72.53,36.39,107.08-2.38S503.4,168.76,503.4,168.76Z"/><path class="cls-3" d="M502.32,149.85c-7.92-65.67-31.81-42-31.81-42-15.83,53.41-2,70.35-2,70.35,43.91,20.57,43.69-50.53,43.69-50.53-8.71-80.7-75-88.49-75-88.49"/><path class="cls-3" d="M372.4,110.82s10.78,53.92-20.87,61c0,0-13.15,4.65-16.32,2.47,0,0-36.46-72.07,33.44-114.56l.39-.23"/><path class="cls-3" d="M345.5,135s-5.64-36.16,17.55-34.3"/><path class="cls-3" d="M337,146.84s-2.8-35.45,10.27-36"/><path class="cls-3" d="M496.38,121.41s11.51,4.46,8.15,26.42"/><path class="cls-3" d="M398.87,78.07s6.1,24.07,38.37,42.26"/><path class="cls-4" d="M369.67,94.46c-.56-1.86-1.84-6.15.65-10.14a11.5,11.5,0,0,1,7.81-4.93s4.95,12.46,16.22,10.09c1.89,7.76-.84,14.72-5.46,16.72-4.45,1.92-9.61-1.21-11.57-2.4A16.78,16.78,0,0,1,369.67,94.46Z"/><path class="cls-5" d="M485.54,84.73s-13.25-6.72-25.91,0h0c-3.17,18.4,10.68,19.72,10.68,19.72s10.35-.85,13.76-5.44A14.13,14.13,0,0,0,485.54,84.73Z"/><path class="cls-3" d="M459.63,84.93s14.64,9.3,25.91,0C485.54,84.93,472.29,78.2,459.63,84.93Z"/><path class="cls-3" d="M459.63,84.93c-3.17,18.39,10.68,19.72,10.68,19.72s10.35-.86,13.76-5.45a14.12,14.12,0,0,0,1.47-14.27"/><path class="cls-3" d="M372,146.84s74.19.9,91.31-3.9"/><path class="cls-3" d="M430.62,120.33s-3.43,13.06,3.43,14.64l4.81,1.58,1.25-16.22Z"/><path class="cls-3" d="M430.37,121.41s-4-1.21-13.73-1.08-2.11,14.29-2.11,14.29,2.37,4.84,19.52.35"/><path class="cls-3" d="M378.4,171.37c-2.64-2.38,7.38-24.46,7.38-24.46s6.6,18.39,3.43,26.83"/><path class="cls-3" d="M444.37,170.92c2.38-3.69-2.39-25.36-2.39-25.36s11.2,15,9.36,26.91"/><path class="cls-6" d="M411.68,99.2l23.26-25.68h0s-2.17-11-7-14.11c-6.89-4.5-32.75,2.35-29.47,16.82C400.81,86.42,411.68,99.2,411.68,99.2Z"/><path class="cls-3" d="M503.4,168.44s47.22,32.73,12.67,71.5S409,242.31,409,242.31l-45.94,9.5s-68.52,10.55-80.92-26.9S330,160.32,330,160.32"/><path class="cls-7" d="M315.23,248.12s-1.58,17.8-6.33,26.11,6.33,9.49,6.33,9.49,14.49,1.35,16.22-23.34V242.25H314.84Z"/><path class="cls-7" d="M440.46,246.14s-11.29,38.37,13.23,43.51c0,0,16.16-2.84,3.17-21.75,0,0-7.52-13.72,2.77-25.65Z"/><path class="cls-7" d="M300.59,224.23l5.94,18s73.19,22.08,163.78,1.91c0,0,7.91-7.18,7.12-16.84Z"/><path class="cls-3" d="M311.14,186.4s33.81-23.13,92.32-9.15"/><path class="cls-3" d="M398.87,179.32s42.82-23,83.18,7.08"/><ellipse class="cls-8" cx="438.13" cy="79.97" rx="5.67" ry="9.09"/><ellipse class="cls-8" cx="439.25" cy="92.06" rx="4.2" ry="6.73" transform="matrix(0.96, -0.29, 0.29, 0.96, -7.96, 129.71)"/><ellipse class="cls-8" cx="440.46" cy="103.7" rx="4.2" ry="6.73"/><path class="cls-8" d="M428.24,41.08s-5.07,30.72,6.7,37l5.52-3.76s8.35-23.73-6.41-38Z"/><path class="cls-8" d="M430,21.9C421.76-3.62,393.66.2,393.66.2S368.2,3,367.78,29.81L423.13,33Z"/><path class="cls-3" d="M424.29,30.52s1.6-7.11,4.48-8.43"/><path class="cls-6" d="M424.29,30.52s1.6-7.11,4.48-8.43c0,0,11.06-7.25,10,8.31,0,0,.4,13.85-7.91,10.68,0,0,8.44,27.43-20.57,36.4,0,0-14.24,3.69-25.32-4.75,0,0-21.63,5.28-14.77-19-2.5-4.48-2.07-23.22-2.07-23.22s9.32-17.79,23.3-20S424.29,30.52,424.29,30.52Z"/><path class="cls-9" d="M389,53.74s6,3.69,11.8,0"/><path class="cls-9" d="M392.64,63.5s3.6,2.9,10.15,0"/><path class="cls-9" d="M404.58,59.54s-3.16,4-1.09,7.12"/><ellipse cx="408.48" cy="41.75" rx="4.99" ry="2.55"/><ellipse cx="384.01" cy="42.93" rx="4.99" ry="2.55"/><path class="cls-10" d="M447.56,129.83S461,143,461.41,160.32l-9.87,1.36-6.88-27.06Z"/><polygon class="cls-11" points="440.46 110.43 449.89 128.83 445.17 139.72 436.26 128.83 440.46 110.43"/><ellipse class="cls-12" cx="369.67" cy="103.8" rx="10.09" ry="7.32" transform="translate(117.83 393.64) rotate(-64.7)"/><ellipse class="cls-12" cx="479.04" cy="104.65" rx="7.32" ry="10.09" transform="translate(21.1 279.92) rotate(-33.27)"/><path class="cls-7" d="M313.65,212.51S300.2,210.93,300.59,224s98.28,18.2,98.28,18.2,71.83,1.92,78.56-14.86c0,0-.71-13.35-73.94-14.87S313.65,212.51,313.65,212.51Z"/><path class="cls-13" d="M331.45,199.85s-21.1-2.64-15.82,7.39,68.71,12.13,74.44-1.06S331.45,199.85,331.45,199.85Z"/><path class="cls-14" d="M328.55,211.07s1.86-9.74,11.87-6.67c0,0,7.17-2.7,9.52,9.17l-6.88,4.17-14.51-2.32Z"/><path class="cls-15" d="M333.83,206.74s-8.78-10.16,5.41-14.27,13,15.52,5.65,16.6S333.83,206.74,333.83,206.74Z"/><path class="cls-16" d="M356.51,209.07s-15.52-8.95-6.57-18.45,18.18,11.61,18.18,11.61Z"/><path class="cls-17" d="M379.72,215.42s3.88-17.29-7.69-17.35c0,0-13.41-2.44-11.57,13.91l8.38,5.76Z"/><path class="cls-18" d="M344.89,215.15s11.38-23.87,23.23-.46C368.12,214.69,350.16,221.23,344.89,215.15Z"/><path class="cls-13" d="M314.78,204.33l3,15s43.25,19.25,67.78,0l4.91-15s-.16,13.41-35,13.41S314.78,204.33,314.78,204.33Z"/><path class="cls-19" d="M418.06,204.38l0,26.14s18.16,11,31.86-2.6l1.59-23.23C443.56,207.43,421.18,204.77,418.06,204.38Z"/><path class="cls-20" d="M451.52,204.13,453,182l-34.94,2.13,0,19.43C420.79,201.14,437.8,198.62,451.52,204.13Z"/><path class="cls-21" d="M419.08,203.68v.77c2.1.32,24.48,3,31.82.25l0-.56C437.8,198.62,420.79,201.14,419.08,203.68Z"/><path class="cls-22" d="M454.58,186.4a46.39,46.39,0,0,1-18.32,3.76A45.66,45.66,0,0,1,418,186.4v-6.28h36.55Z"/><path class="cls-22" d="M420.8,175.94s10.24-7.74,29.56.92C471.85,186.49,403.4,188.07,420.8,175.94Z"/><path class="cls-3" d="M418,230.52s3.92-7.75,31.86-2.6"/><line class="cls-23" x1="213.2" y1="164.51" x2="0.1" y2="164.51"/><path class="cls-8" d="M213.2,164.61q-26.64,1-53.28.73c-8.88-.14-17.76-.43-26.64-.51s-17.75.06-26.63.23-17.76.33-26.64.39-17.76.15-26.64.13c-17.76-.1-35.52-.33-53.27-1a.1.1,0,0,1-.1-.1.09.09,0,0,1,.1-.1c17.75-.63,35.51-.87,53.27-1,8.88,0,17.76.06,26.64.13s17.76.2,26.64.39,17.75.29,26.63.23,17.76-.37,26.64-.51q26.64-.26,53.28.73a.1.1,0,0,1,.09.1A.09.09,0,0,1,213.2,164.61Z"/><line class="cls-23" x1="222.69" y1="303.24" x2="49.68" y2="303.24"/><path class="cls-8" d="M222.69,303.34q-21.63,1-43.25.73c-7.21-.14-14.42-.44-21.63-.51s-14.42.05-21.63.22-14.41.34-21.62.4-14.42.15-21.63.12c-14.42-.1-28.83-.33-43.25-1a.11.11,0,0,1-.1-.11.11.11,0,0,1,.1-.09c14.42-.64,28.83-.87,43.25-1,7.21,0,14.42.06,21.63.13s14.42.2,21.62.39,14.42.28,21.63.22,14.42-.36,21.63-.51c14.41-.16,28.83.06,43.25.74a.1.1,0,0,1,.1.1A.13.13,0,0,1,222.69,303.34Z"/><line class="cls-23" x1="493.81" y1="281.61" x2="659.44" y2="281.61"/><path class="cls-8" d="M493.81,281.51q20.7-1,41.41-.73c6.9.14,13.8.43,20.7.51s13.8-.06,20.7-.23,13.81-.33,20.71-.39,13.8-.15,20.7-.13c13.8.1,27.6.34,41.41,1a.1.1,0,0,1,0,.2c-13.81.63-27.61.87-41.41,1-6.9,0-13.8-.06-20.7-.13s-13.8-.2-20.71-.39-13.8-.28-20.7-.23-13.8.37-20.7.51q-20.7.26-41.41-.73a.1.1,0,0,1-.09-.11A.09.09,0,0,1,493.81,281.51Z"/><line class="cls-23" x1="528.71" y1="176.64" x2="676.32" y2="176.64"/><path class="cls-8" d="M528.71,176.54c6.15-.36,12.3-.56,18.45-.67s12.3-.18,18.45-.06,12.3.43,18.45.51,12.3,0,18.45-.22,12.3-.34,18.45-.4,12.3-.15,18.45-.12c12.31.08,24.61.33,36.91,1a.11.11,0,0,1,.09.11.09.09,0,0,1-.09.09c-12.3.63-24.6.88-36.91,1-6.15,0-12.3-.06-18.45-.13s-12.3-.2-18.45-.39-12.3-.3-18.45-.22-12.3.36-18.45.5-12.3.06-18.45-.05-12.3-.32-18.45-.68a.1.1,0,0,1-.1-.1A.13.13,0,0,1,528.71,176.54Z"/></g></g></svg>